<svg fill="none" height="4800" viewBox="0 0 960 4800" width="960" xmlns="http://www.w3.org/2000/svg" xmlns:xlink="http://www.w3.org/1999/xlink"><mask id="a" height="4800" maskUnits="userSpaceOnUse" width="960" x="0" y="0"><path d="m0 0h960v4800h-960z" fill="#d9d9d9"/></mask><path d="m0 0h960v4800h-960z" fill="#fff"/><g mask="url(#a)"><g fill="#d03131"><circle cx="-65" cy="897" r="356"/><circle cx="-65" cy="897" r="356"/><circle cx="-65" cy="897" r="356"/><circle cx="-65" cy="897" r="356"/></g><circle cx="-65" cy="897" fill="#ef7c61" r="356"/><circle cx="842.5" cy="1356.5" fill="#d03131" r="512.5"/><circle cx="842.5" cy="1356.5" fill="#d03131" r="512.5"/><circle cx="842.5" cy="1356.5" fill="#d03131" r="512.5"/><circle cx="842.5" cy="1356.5" fill="#d03131" r="512.5"/><circle cx="842.5" cy="1356.5" fill="#4db172" r="512.5"/><ellipse cx="69" cy="2485.5" fill="#d03131" rx="580" ry="587.5"/><ellipse cx="69" cy="2485.5" fill="#d03131" rx="580" ry="587.5"/><ellipse cx="69" cy="2485.5" fill="#d03131" rx="580" ry="587.5"/><ellipse cx="69" cy="2485.5" fill="#d03131" rx="580" ry="587.5"/><ellipse cx="69" cy="2485.5" fill="#ee9e5e" rx="580" ry="587.5"/><circle cx="912" cy="4156" fill="#d03131" r="896"/><circle cx="912" cy="4156" fill="#d03131" r="896"/><circle cx="912" cy="4156" fill="#d03131" r="896"/><circle cx="912" cy="4156" fill="#d03131" r="896"/><circle cx="912" cy="4156" fill="#7497cf" r="896"/></g></svg>