<svg width="960" height="4800" viewBox="0 0 960 4800" fill="none" xmlns="http://www.w3.org/2000/svg">
<mask id="mask0_1_3" style="mask-type:alpha" maskUnits="userSpaceOnUse" x="0" y="0" width="960" height="4800">
<rect width="960" height="4800" fill="#D9D9D9"/>
</mask>
<g mask="url(#mask0_1_3)">
<circle cx="-65" cy="897" r="356" fill="#D03131"/>
<circle cx="-65" cy="897" r="356" fill="#D03131"/>
<circle cx="-65" cy="897" r="356" fill="#D03131"/>
<circle cx="-65" cy="897" r="356" fill="#D03131"/>
<circle cx="-65" cy="897" r="356" fill="#EF7C61"/>
<circle cx="842.5" cy="1356.5" r="512.5" fill="#D03131"/>
<circle cx="842.5" cy="1356.5" r="512.5" fill="#D03131"/>
<circle cx="842.5" cy="1356.5" r="512.5" fill="#D03131"/>
<circle cx="842.5" cy="1356.5" r="512.5" fill="#D03131"/>
<circle cx="842.5" cy="1356.5" r="512.5" fill="#4DB172"/>
<ellipse cx="69" cy="2485.5" rx="580" ry="587.5" fill="#D03131"/>
<ellipse cx="69" cy="2485.5" rx="580" ry="587.5" fill="#D03131"/>
<ellipse cx="69" cy="2485.5" rx="580" ry="587.5" fill="#D03131"/>
<ellipse cx="69" cy="2485.5" rx="580" ry="587.5" fill="#D03131"/>
<ellipse cx="69" cy="2485.5" rx="580" ry="587.5" fill="#EE9E5E"/>
<circle cx="912" cy="4156" r="896" fill="#D03131"/>
<circle cx="912" cy="4156" r="896" fill="#D03131"/>
<circle cx="912" cy="4156" r="896" fill="#D03131"/>
<circle cx="912" cy="4156" r="896" fill="#D03131"/>
<circle cx="912" cy="4156" r="896" fill="#7497CF"/>
</g>
</svg>
