<svg fill="#fff" viewBox="0 0 448 512" xmlns="http://www.w3.org/2000/svg"><path d="m0 64c0-35.3 28.7-64 64-64h160v128c0 17.7 14.3 32 32 32h128v144h-88-24-88-24c-35.3 0-64 28.7-64 64v80 48 16h-32c-35.3 0-64-28.7-64-64zm384 64h-128v-128zm-224 224h24c30.9 0 56 25.1 56 56s-25.1 56-56 56h-8v32c0 8.8-7.2 16-16 16s-16-7.2-16-16v-48-80c0-8.8 7.2-16 16-16zm24 80c13.3 0 24-10.7 24-24s-10.7-24-24-24h-8v48zm88-80h24c26.5 0 48 21.5 48 48v64c0 26.5-21.5 48-48 48h-24c-8.8 0-16-7.2-16-16v-128c0-8.8 7.2-16 16-16zm24 128c8.8 0 16-7.2 16-16v-64c0-8.8-7.2-16-16-16h-8v96zm72-112c0-8.8 7.2-16 16-16h48c8.8 0 16 7.2 16 16s-7.2 16-16 16h-32v32h32c8.8 0 16 7.2 16 16s-7.2 16-16 16h-32v48c0 8.8-7.2 16-16 16s-16-7.2-16-16v-64z"/></svg>