<svg width="2350" height="1000" viewBox="0 0 2350 1000" fill="none" xmlns="http://www.w3.org/2000/svg">
<mask id="mask0_2_12" style="mask-type:alpha" maskUnits="userSpaceOnUse" x="0" y="0" width="2350" height="1000">
<rect width="2350" height="1000" fill="#D9D9D9"/>
</mask>
<g mask="url(#mask0_2_12)">
<circle cx="374" cy="832" r="608" fill="#D03131"/>
<circle cx="374" cy="832" r="608" fill="#D03131"/>
<circle cx="374" cy="832" r="608" fill="#D03131"/>
<circle cx="374" cy="832" r="608" fill="#D03131"/>
<circle cx="374" cy="832" r="608" fill="#EF7C61"/>
<path d="M1518 -294C1518 221.282 1100.28 639 585 639C69.7183 639 -348 221.282 -348 -294C-348 -809.282 69.7183 -1227 585 -1227C1100.28 -1227 1518 -809.282 1518 -294Z" fill="#D03131"/>
<path d="M1518 -294C1518 221.282 1100.28 639 585 639C69.7183 639 -348 221.282 -348 -294C-348 -809.282 69.7183 -1227 585 -1227C1100.28 -1227 1518 -809.282 1518 -294Z" fill="#D03131"/>
<path d="M1518 -294C1518 221.282 1100.28 639 585 639C69.7183 639 -348 221.282 -348 -294C-348 -809.282 69.7183 -1227 585 -1227C1100.28 -1227 1518 -809.282 1518 -294Z" fill="#D03131"/>
<path d="M1518 -294C1518 221.282 1100.28 639 585 639C69.7183 639 -348 221.282 -348 -294C-348 -809.282 69.7183 -1227 585 -1227C1100.28 -1227 1518 -809.282 1518 -294Z" fill="#D03131"/>
<path d="M1518 -294C1518 221.282 1100.28 639 585 639C69.7183 639 -348 221.282 -348 -294C-348 -809.282 69.7183 -1227 585 -1227C1100.28 -1227 1518 -809.282 1518 -294Z" fill="#4DB172"/>
<path d="M1691 1365C1691 1754.91 1373.57 2071 982 2071C590.43 2071 273 1754.91 273 1365C273 975.087 590.43 659 982 659C1373.57 659 1691 975.087 1691 1365Z" fill="#D03131"/>
<path d="M1691 1365C1691 1754.91 1373.57 2071 982 2071C590.43 2071 273 1754.91 273 1365C273 975.087 590.43 659 982 659C1373.57 659 1691 975.087 1691 1365Z" fill="#D03131"/>
<path d="M1691 1365C1691 1754.91 1373.57 2071 982 2071C590.43 2071 273 1754.91 273 1365C273 975.087 590.43 659 982 659C1373.57 659 1691 975.087 1691 1365Z" fill="#D03131"/>
<path d="M1691 1365C1691 1754.91 1373.57 2071 982 2071C590.43 2071 273 1754.91 273 1365C273 975.087 590.43 659 982 659C1373.57 659 1691 975.087 1691 1365Z" fill="#D03131"/>
<path d="M1691 1365C1691 1754.91 1373.57 2071 982 2071C590.43 2071 273 1754.91 273 1365C273 975.087 590.43 659 982 659C1373.57 659 1691 975.087 1691 1365Z" fill="#7497CF"/>
<path d="M1657 312C1657 614.652 1411.65 860 1109 860C806.348 860 561 614.652 561 312C561 9.34796 806.348 -236 1109 -236C1411.65 -236 1657 9.34796 1657 312Z" fill="#D03131"/>
<path d="M1657 312C1657 614.652 1411.65 860 1109 860C806.348 860 561 614.652 561 312C561 9.34796 806.348 -236 1109 -236C1411.65 -236 1657 9.34796 1657 312Z" fill="#D03131"/>
<path d="M1657 312C1657 614.652 1411.65 860 1109 860C806.348 860 561 614.652 561 312C561 9.34796 806.348 -236 1109 -236C1411.65 -236 1657 9.34796 1657 312Z" fill="#D03131"/>
<path d="M1657 312C1657 614.652 1411.65 860 1109 860C806.348 860 561 614.652 561 312C561 9.34796 806.348 -236 1109 -236C1411.65 -236 1657 9.34796 1657 312Z" fill="#D03131"/>
<path d="M1657 312C1657 614.652 1411.65 860 1109 860C806.348 860 561 614.652 561 312C561 9.34796 806.348 -236 1109 -236C1411.65 -236 1657 9.34796 1657 312Z" fill="#EE9E5E"/>
</g>
</svg>
