<?xml version="1.0" encoding="UTF-8" standalone="no"?>
<svg
   xmlns:dc="http://purl.org/dc/elements/1.1/"
   xmlns:cc="http://creativecommons.org/ns#"
   xmlns:rdf="http://www.w3.org/1999/02/22-rdf-syntax-ns#"
   xmlns:svg="http://www.w3.org/2000/svg"
   xmlns="http://www.w3.org/2000/svg"
   viewBox="0 0 463.47867 793.70398"
   height="793.70398"
   width="463.47867"
   xml:space="preserve"
   id="svg2"
   version="1.1"><metadata
     id="metadata8"><rdf:RDF><cc:Work
         rdf:about=""><dc:format>image/svg+xml</dc:format><dc:type
           rdf:resource="http://purl.org/dc/dcmitype/StillImage" /></cc:Work></rdf:RDF></metadata><defs
     id="defs6"><clipPath
       id="clipPath18"
       clipPathUnits="userSpaceOnUse"><path
         id="path16"
         d="M 0,595.278 H 347.609 V 0 H 0 Z" /></clipPath></defs><g
     transform="matrix(1.3333333,0,0,-1.3333333,0,793.704)"
     id="g10"><g
       id="g12"><g
         clip-path="url(#clipPath18)"
         id="g14"><g
           transform="translate(209.6215,339.8128)"
           id="g20"><path
             id="path22"
             style="fill:#1c1c1a;fill-opacity:1;fill-rule:nonzero;stroke:none"
             d="m 0,0 c -23.311,5.055 -45.798,10.657 -70.907,12.49 l -30.464,34.775 -34.77,-39.693 c -14.171,-3.189 -29.273,-7.926 -45.573,-14.611 2.017,19.832 9.29,35.984 15.344,46.908 0.009,-0.011 0.148,-0.199 0.148,-0.199 C -85.829,92.853 7.715,26.16 93.145,37.64 102.96,17.423 104.301,1.236 104.676,-5.586 63.248,-12.529 30.712,-6.67 0,0 m -101.37,-18.578 -20.31,23.185 20.31,23.184 20.309,-23.184 z m 7.586,139.284 c 18.815,16.458 35.87,30.789 47.335,44.371 2.973,3.526 5.61,7.033 7.818,10.592 0.038,-0.059 0.078,-0.121 0.116,-0.181 6.544,-10.094 17.05,-20.425 33.019,-34.013 19.589,-16.656 43.36,-34.946 63.861,-56.19 C 68.813,74.462 78.341,62.928 85.993,50.583 65.706,49.376 45.179,52.395 27.976,55.54 -8.106,62.123 -43.901,72.374 -80.839,73.731 c -25.794,0.939 -51.793,-3.363 -74.344,-16.331 15.521,21.532 35.314,40.492 61.399,63.306 M 96.778,59.781 C 85.993,76.703 72.33,91.746 57.99,105.403 39.304,123.197 19.223,138.818 2.791,152.841 -11.386,164.94 -23.7,176.574 -28.963,186.94 c -3.103,6.082 -2.736,9.3 -2.736,13.238 l 15.686,17.726 -22.699,37.561 -22.698,-37.561 15.686,-17.727 c 0,-4.203 0.574,-8.546 -5.005,-17.404 -11.229,-17.87 -39.232,-39.39 -66.88,-64.472 -22.106,-20.068 -48.011,-45.845 -63.743,-76.743 -16.593,-32.589 -14.945,-56.642 -14.962,-70.293 10.2,4.56 35.737,16.888 66.372,23.303 l 28.571,-32.618 31.853,36.361 c 14.93,-1.245 29.249,-3.842 48.062,-7.947 53.114,-11.585 83.074,-18.632 140.33,-7.566 -0.013,13.495 0.682,41.248 -22.096,76.983" /></g><g
           transform="translate(281.0564,247.8919)"
           id="g24"><path
             id="path26"
             style="fill:#1c1c1a;fill-opacity:1;fill-rule:nonzero;stroke:none"
             d="m 0,0 14.736,-59.279 c -6.232,-13.664 -18.097,-30.097 -37.783,-30.097 -14.896,0 -30.354,10.961 -30.354,35.132 0,50.028 59.865,75.323 96.403,86.565 l -2.53,15.74 C -0.281,35.694 -69.702,4.778 -69.702,-55.649 c 0,-29.511 18.269,-47.499 43.564,-47.78 27.097,-0.244 40.83,20.495 44.894,27.979 l 5.977,-24.044 h 15.739 l -26.7,106.52 z" /></g><g
           transform="translate(71.9505,195.6154)"
           id="g28"><path
             id="path30"
             style="fill:#1c1c1a;fill-opacity:1;fill-rule:nonzero;stroke:none"
             d="M 0,0 -12.367,-7.87 C 8.432,-44.407 35.975,-47.217 58.741,-47.217 v 14.614 C 42.721,-32.603 19.674,-33.446 0,0" /></g><g
           transform="translate(98.9319,134.345)"
           id="g32"><path
             id="path34"
             style="fill:#1c1c1a;fill-opacity:1;fill-rule:nonzero;stroke:none"
             d="M 0,0 -10.403,-13.21 C -29.459,-12.606 -46.386,0 -64.362,0 -81.788,0 -92.468,-11.523 -92.186,-31.759 h 14.052 c 0,13.209 8.151,16.582 16.021,16.582 13.189,0 27.482,-9.012 42.582,-9.626 l -79.401,-100.829 11.523,-8.713 10.324,13.109 c 18.291,-1.327 34.691,-13.109 52.071,-13.109 17.425,0 28.106,11.523 27.825,31.759 h -14.053 c 0,-13.209 -8.151,-16.582 -16.02,-16.582 -12.643,0 -26.301,8.279 -40.709,9.506 L 11.523,-8.713 Z" /></g><g
           transform="translate(81.2254,247.3298)"
           id="g36"><path
             id="path38"
             style="fill:#1c1c1a;fill-opacity:1;fill-rule:nonzero;stroke:none"
             d="M 0,0 C 0,-24.265 -20.107,-37.622 -44.126,-38.738 V 34.016 C -19.9,34.199 0,22.419 0,0 M -58.741,33.145 V -98.932 h 14.615 v 45.839 C -11.84,-50.45 16.301,-31.887 16.301,0 c 0,28.949 -25.295,48.904 -60.708,48.904 -17.144,0 -30.635,-3.092 -36.818,-5.621 l 3.372,-14.053 c 4.987,1.781 11.669,3.109 19.112,3.915" /></g><g
           transform="translate(159.359,172.0065)"
           id="g40"><path
             id="path42"
             style="fill:#1c1c1a;fill-opacity:1;fill-rule:nonzero;stroke:none"
             d="m 0,0 h 14.615 v 51.152 l 45.531,55.65 -11.804,9.837 L 7.308,66.892 -33.727,116.639 -45.531,106.802 0,51.152 Z" /></g><g
           transform="translate(306.9137,49.3009)"
           id="g44"><path
             id="path46"
             style="fill:#1c1c1a;fill-opacity:1;fill-rule:nonzero;stroke:none"
             d="M 0,0 -55.368,46.943 V 81.671 H -69.983 V -47.333 h 14.615 V 28.674 L 0,-18.269 V -47.333 H 14.615 V 81.671 L 0,81.671 Z" /></g><g
           transform="translate(152.3326,24.1708)"
           id="g48"><path
             id="path50"
             style="fill:#1c1c1a;fill-opacity:1;fill-rule:nonzero;stroke:none"
             d="M 0,0 14.615,-16.582 29.23,0 14.615,16.582 Z" /></g><g
           transform="translate(180.1573,138.842)"
           id="g52"><path
             id="path54"
             style="fill:#1c1c1a;fill-opacity:1;fill-rule:nonzero;stroke:none"
             d="M 0,0 -12.929,21.641 -26.138,0 l 8.769,-9.889 c -3.782,-39.73 -41.962,-70.202 -45.869,-126.986 h 14.615 c 2.811,35.976 20.798,58.46 35.694,91.906 15.177,-34.008 33.165,-55.649 35.695,-91.906 H 37.38 c -3.913,56.62 -42.458,87.566 -45.939,127.014 z" /></g></g></g></g></svg>